<?xml version="1.0" encoding="UTF-8" standalone="no"?><!DOCTYPE svg PUBLIC "-//W3C//DTD SVG 1.1//EN" "http://www.w3.org/Graphics/SVG/1.1/DTD/svg11.dtd"><svg width="100%" height="100%" viewBox="0 0 144 144" version="1.1" xmlns="http://www.w3.org/2000/svg" xmlns:xlink="http://www.w3.org/1999/xlink" xml:space="preserve" xmlns:serif="http://www.serif.com/" style="fill-rule:evenodd;clip-rule:evenodd;stroke-linejoin:round;stroke-miterlimit:2;"><path d="M15,114l0,-72l114,0l0,72c0,6.6 -5.4,12 -12,12l-90,0c-6.6,0 -12,-5.4 -12,-12Z" style="fill:#cfd8dc;fill-rule:nonzero;"/><path d="M129,30l0,18l-114,0l0,-18c0,-6.6 5.4,-12 12,-12l90,0c6.6,0 12,5.4 12,12Z" style="fill:#00acff;fill-rule:nonzero;"/><path d="M99,21c-4.937,0 -9,4.063 -9,9c0,4.937 4.063,9 9,9c4.937,0 9,-4.063 9,-9c0,-4.937 -4.063,-9 -9,-9Zm-54,0c-4.937,0 -9,4.063 -9,9c0,4.937 4.063,9 9,9c4.937,0 9,-4.063 9,-9c0,-4.937 -4.063,-9 -9,-9Z" style="fill:#008dd1;fill-rule:nonzero;"/><path d="M99,9c-3.3,0 -6,2.7 -6,6l0,15c0,3.3 2.7,6 6,6c3.3,0 6,-2.7 6,-6l0,-15c0,-3.3 -2.7,-6 -6,-6Zm-54,0c-3.3,0 -6,2.7 -6,6l0,15c0,3.3 2.7,6 6,6c3.3,0 6,-2.7 6,-6l0,-15c0,-3.3 -2.7,-6 -6,-6Z" style="fill:#b0bec5;fill-rule:nonzero;"/><rect x="35.5" y="61.188" width="18.25" height="18.25" style="fill:#90a4ae;"/><rect x="62.875" y="61.188" width="18.25" height="18.25" style="fill:#90a4ae;"/><rect x="90.25" y="61.188" width="18.25" height="18.25" style="fill:#90a4ae;"/><rect x="35.5" y="88.563" width="18.25" height="18.25" style="fill:#90a4ae;"/><rect x="62.875" y="88.563" width="18.25" height="18.25" style="fill:#90a4ae;"/><rect x="90.25" y="88.563" width="18.25" height="18.25" style="fill:#00acff;"/></svg>