<?xml version="1.0" encoding="UTF-8" standalone="no"?><!DOCTYPE svg PUBLIC "-//W3C//DTD SVG 1.1//EN" "http://www.w3.org/Graphics/SVG/1.1/DTD/svg11.dtd"><svg width="100%" height="100%" viewBox="0 0 144 144" version="1.1" xmlns="http://www.w3.org/2000/svg" xmlns:xlink="http://www.w3.org/1999/xlink" xml:space="preserve" xmlns:serif="http://www.serif.com/" style="fill-rule:evenodd;clip-rule:evenodd;stroke-linejoin:round;stroke-miterlimit:2;"><g id="Capa1"><path d="M123.5,22.702c0,-6.459 -5.625,-11.702 -12.555,-11.702l-77.89,0c-6.93,0 -12.555,5.243 -12.555,11.702l0,98.596c0,6.459 5.625,11.702 12.555,11.702l77.89,0c6.93,0 12.555,-5.243 12.555,-11.702l0,-98.596Z" style="fill:#00acff;"/><clipPath id="_clip1"><path d="M116.5,22.702c0,-6.459 -5.243,-11.702 -11.702,-11.702l-72.596,0c-6.459,0 -11.702,5.243 -11.702,11.702l0,98.596c0,6.459 5.243,11.702 11.702,11.702l72.596,0c6.459,0 11.702,-5.243 11.702,-11.702l0,-98.596Z"/></clipPath><g clip-path="url(#_clip1)"><rect x="20.5" y="8" width="14.75" height="133" style="fill:#0082c1;"/></g><path d="M78.25,61.548c5.789,-9.428 17.368,-9.428 23.158,-4.714c5.79,4.714 5.79,14.143 0,23.571c-4.053,7.072 -14.474,14.143 -23.158,18.858c-8.684,-4.715 -19.105,-11.786 -23.158,-18.858c-5.789,-9.428 -5.789,-18.857 0,-23.571c5.79,-4.714 17.368,-4.714 23.158,4.714Z" style="fill:#fff;"/><path d="M66.821,72.564l7.493,0l0,-7.493l7.872,0l0,7.493l7.493,0l0,7.872l-7.493,0l0,7.493l-7.872,0l0,-7.493l-7.493,0l0,-7.872Z" style="fill:#00acff;"/></g></svg>