<?xml version="1.0" encoding="UTF-8" standalone="no"?><!DOCTYPE svg PUBLIC "-//W3C//DTD SVG 1.1//EN" "http://www.w3.org/Graphics/SVG/1.1/DTD/svg11.dtd"><svg width="100%" height="100%" viewBox="0 0 144 144" version="1.1" xmlns="http://www.w3.org/2000/svg" xmlns:xlink="http://www.w3.org/1999/xlink" xml:space="preserve" xmlns:serif="http://www.serif.com/" style="fill-rule:evenodd;clip-rule:evenodd;stroke-linejoin:round;stroke-miterlimit:2;"><g id="Capa1"><path d="M105.468,20.178c0,-4.456 -3.88,-8.072 -8.66,-8.072l-53.731,0c-4.78,0 -8.661,3.616 -8.661,8.072l0,68.014c0,4.456 3.881,8.073 8.661,8.073l53.731,0c4.78,0 8.66,-3.617 8.66,-8.073l0,-68.014Z" style="fill:#00acff;"/><clipPath id="_clip1"><path d="M100.64,20.178c0,-4.456 -3.617,-8.072 -8.073,-8.072l-50.078,0c-4.456,0 -8.073,3.616 -8.073,8.072l0,68.014c0,4.456 3.617,8.073 8.073,8.073l50.078,0c4.456,0 8.073,-3.617 8.073,-8.073l0,-68.014Z"/></clipPath><g clip-path="url(#_clip1)"><rect x="34.416" y="10.036" width="10.175" height="91.747" style="fill:#0082c1;"/></g><path d="M74.254,46.975c3.993,-6.504 11.981,-6.504 15.975,-3.252c3.994,3.252 3.994,9.756 0,16.26c-2.796,4.879 -9.985,9.756 -15.975,13.009c-5.991,-3.253 -13.179,-8.13 -15.975,-13.009c-3.994,-6.504 -3.994,-13.008 0,-16.26c3.994,-3.252 11.981,-3.252 15.975,3.252Z" style="fill:#fff;"/><path d="M66.37,54.574l5.169,0l0,-5.169l5.43,0l0,5.169l5.169,0l0,5.43l-5.169,0l0,5.169l-5.43,0l0,-5.169l-5.169,0l0,-5.43Z" style="fill:#00acff;"/></g><g id="Capa2"><path d="M42.93,110.431l-2.977,0c-0.013,0.861 0.144,1.606 0.47,2.232c0.326,0.627 0.767,1.143 1.322,1.548c0.555,0.405 1.195,0.702 1.919,0.891c0.725,0.189 1.473,0.284 2.243,0.284c0.953,0 1.792,-0.111 2.517,-0.333c0.725,-0.222 1.332,-0.532 1.821,-0.93c0.49,-0.399 0.859,-0.872 1.107,-1.42c0.248,-0.549 0.372,-1.143 0.372,-1.783c0,-0.783 -0.166,-1.426 -0.499,-1.929c-0.333,-0.503 -0.728,-0.904 -1.185,-1.205c-0.457,-0.3 -0.918,-0.519 -1.381,-0.656c-0.464,-0.137 -0.826,-0.231 -1.087,-0.284c-0.875,-0.222 -1.583,-0.404 -2.125,-0.548c-0.542,-0.144 -0.966,-0.287 -1.273,-0.431c-0.307,-0.144 -0.513,-0.3 -0.617,-0.47c-0.105,-0.17 -0.157,-0.392 -0.157,-0.666c0,-0.3 0.065,-0.548 0.196,-0.744c0.13,-0.196 0.297,-0.359 0.499,-0.49c0.203,-0.13 0.428,-0.222 0.676,-0.274c0.248,-0.052 0.496,-0.078 0.744,-0.078c0.379,0 0.728,0.032 1.048,0.098c0.32,0.065 0.604,0.176 0.852,0.332c0.248,0.157 0.447,0.373 0.598,0.647c0.15,0.274 0.238,0.62 0.264,1.038l2.977,0c0,-0.81 -0.153,-1.498 -0.46,-2.066c-0.307,-0.568 -0.722,-1.035 -1.244,-1.401c-0.522,-0.365 -1.12,-0.63 -1.792,-0.793c-0.673,-0.163 -1.374,-0.245 -2.106,-0.245c-0.626,0 -1.253,0.085 -1.88,0.255c-0.627,0.169 -1.188,0.431 -1.684,0.783c-0.496,0.353 -0.898,0.793 -1.205,1.322c-0.307,0.529 -0.46,1.153 -0.46,1.871c0,0.639 0.121,1.185 0.362,1.635c0.242,0.451 0.558,0.826 0.95,1.126c0.392,0.301 0.836,0.545 1.332,0.735c0.496,0.189 1.005,0.349 1.528,0.48c0.509,0.143 1.012,0.274 1.508,0.391c0.496,0.118 0.94,0.255 1.332,0.412c0.392,0.156 0.708,0.352 0.95,0.587c0.241,0.235 0.362,0.542 0.362,0.921c0,0.352 -0.091,0.643 -0.274,0.871c-0.183,0.229 -0.411,0.408 -0.686,0.539c-0.274,0.131 -0.568,0.219 -0.881,0.264c-0.313,0.046 -0.607,0.069 -0.881,0.069c-0.405,0 -0.797,-0.049 -1.176,-0.147c-0.378,-0.098 -0.708,-0.248 -0.989,-0.45c-0.28,-0.203 -0.506,-0.467 -0.675,-0.794c-0.17,-0.326 -0.255,-0.724 -0.255,-1.194Z" style="fill:#0082c1;fill-rule:nonzero;"/><path d="M57.071,109.667l1.822,-5.132l0.039,0l1.763,5.132l-3.624,0Zm0.294,-8.579l-5.288,13.985l3.094,0l1.097,-3.115l5.23,0l1.057,3.115l3.193,0l-5.23,-13.985l-3.153,0Z" style="fill:#0082c1;fill-rule:nonzero;"/><path d="M66.962,101.088l0,13.985l9.891,0l0,-2.586l-6.816,0l0,-11.399l-3.075,0Z" style="fill:#0082c1;fill-rule:nonzero;"/><path d="M90.446,109.784l0,-8.696l-3.075,0l0,8.696c0,1.045 -0.209,1.812 -0.627,2.302c-0.418,0.489 -1.175,0.734 -2.272,0.734c-0.627,0 -1.126,-0.088 -1.498,-0.264c-0.372,-0.177 -0.663,-0.405 -0.872,-0.686c-0.209,-0.281 -0.346,-0.604 -0.411,-0.969c-0.065,-0.366 -0.098,-0.738 -0.098,-1.117l0,-8.696l-3.075,0l0,8.696c0,1.907 0.519,3.317 1.557,4.231c1.038,0.914 2.504,1.371 4.397,1.371c1.867,0 3.33,-0.46 4.387,-1.381c1.058,-0.92 1.587,-2.327 1.587,-4.221Z" style="fill:#0082c1;fill-rule:nonzero;"/><path d="M96.165,112.487l0,-8.814l2.194,0c0.757,0 1.394,0.108 1.909,0.324c0.516,0.215 0.931,0.525 1.244,0.93c0.313,0.405 0.539,0.891 0.676,1.459c0.137,0.568 0.205,1.205 0.205,1.91c0,0.77 -0.098,1.423 -0.293,1.958c-0.196,0.536 -0.457,0.97 -0.784,1.303c-0.326,0.333 -0.698,0.571 -1.116,0.715c-0.418,0.143 -0.849,0.215 -1.293,0.215l-2.742,0Zm-3.075,-11.399l0,13.985l6.033,0c1.07,0 2.001,-0.18 2.791,-0.539c0.79,-0.359 1.449,-0.852 1.978,-1.479c0.529,-0.627 0.924,-1.371 1.185,-2.233c0.261,-0.861 0.391,-1.802 0.391,-2.82c0,-1.162 -0.16,-2.174 -0.479,-3.036c-0.32,-0.862 -0.764,-1.58 -1.332,-2.154c-0.568,-0.575 -1.241,-1.006 -2.018,-1.293c-0.777,-0.287 -1.616,-0.431 -2.516,-0.431l-6.033,0Z" style="fill:#0082c1;fill-rule:nonzero;"/><path d="M72.71,117.861l8.269,0l0,3.682l-3.787,0l0,1.557l3.724,0l0,3.492l-3.724,0l0,1.62l3.934,0l0,3.682l-8.416,0l0,-14.033Z" style="fill:#0082c1;fill-rule:nonzero;"/><path d="M85.334,124.636l-3.724,-6.775l4.902,0l1.262,2.293l1.263,-2.293l4.923,0l-3.724,6.775l3.997,7.258l-4.902,0l-1.557,-2.798l-1.535,2.798l-4.903,0l3.998,-7.258Z" style="fill:#0082c1;fill-rule:nonzero;"/><path d="M105.468,123.205c0,0.968 -0.168,1.792 -0.505,2.472c-0.336,0.681 -0.795,1.231 -1.378,1.652c-0.582,0.421 -1.262,0.729 -2.04,0.926c-0.779,0.196 -1.617,0.294 -2.515,0.294l0,3.345l-4.481,0l0,-14.033l4.481,0c0.898,0 1.736,0.098 2.515,0.295c0.778,0.196 1.458,0.505 2.04,0.925c0.583,0.421 1.042,0.972 1.378,1.652c0.337,0.68 0.505,1.504 0.505,2.472Zm-6.438,1.557l0.19,0c0.589,0 1.013,-0.137 1.273,-0.41c0.259,-0.274 0.389,-0.656 0.389,-1.147c0,-0.491 -0.13,-0.873 -0.389,-1.146c-0.26,-0.274 -0.684,-0.411 -1.273,-0.411l-0.19,0l0,3.114Z" style="fill:#0082c1;fill-rule:nonzero;"/></g></svg>