<?xml version="1.0" encoding="UTF-8" standalone="no"?><!DOCTYPE svg PUBLIC "-//W3C//DTD SVG 1.1//EN" "http://www.w3.org/Graphics/SVG/1.1/DTD/svg11.dtd"><svg width="100%" height="100%" viewBox="0 0 144 144" version="1.1" xmlns="http://www.w3.org/2000/svg" xmlns:xlink="http://www.w3.org/1999/xlink" xml:space="preserve" xmlns:serif="http://www.serif.com/" style="fill-rule:evenodd;clip-rule:evenodd;stroke-linejoin:round;stroke-miterlimit:2;"><g id="Capa2"><g><path d="M36.981,37l68.412,0c0,0 3.107,32.023 3.107,43.094c0,17.713 -16.364,32.093 -36.519,32.093c-20.156,0 -36.52,-14.38 -36.52,-32.093c0,-17.713 1.52,-43.094 1.52,-43.094Z" style="fill:#ffa726;"/><path d="M112.293,61.641c3.261,0 5.374,3.542 4.714,7.906c-0.659,4.363 -3.843,7.906 -7.105,7.906c-3.261,0 -5.374,-3.543 -4.714,-7.906c0.659,-4.364 3.843,-7.906 7.105,-7.906Z" style="fill:#ffa726;"/><path d="M31.668,62.547c-3.261,0 -5.374,3.543 -4.714,7.906c0.659,4.364 3.843,7.906 7.105,7.906c3.261,0 5.374,-3.542 4.714,-7.906c-0.659,-4.363 -3.843,-7.906 -7.105,-7.906Z" style="fill:#ffa726;"/><path d="M34.394,60.166l-2.77,2.377l24.354,28.384l2.77,-2.377l-24.354,-28.384Z" style="fill:#4db6ac;"/><path d="M110.36,60.166l2.77,2.377l-24.354,28.384l-2.77,-2.377l24.354,-28.384Z" style="fill:#4db6ac;"/><path d="M71.981,70.453c10.486,0 19,21.287 19,31.774c0,10.486 -8.514,13.773 -19,13.773c-10.487,0 -19,-3.287 -19,-13.773c0,-12.395 8.513,-31.774 19,-31.774Z" style="fill:#dcedc8;"/><path d="M36,55c18.994,-4.88 37.332,-10.098 54,-17l17,15l0,17l6.13,-7.559c1.15,-24.641 -5.341,-41.012 -22.88,-44.441l-6.25,-8c-32.628,-1.983 -55.654,12.449 -53,52.188l5,5.812l0,-13Z" style="fill:#424242;"/><path d="M54.481,69.547c4.483,0 4.5,-3.882 4.5,-1.274c0,2.609 -2.017,4.727 -4.5,4.727c-2.484,0 -4.5,-2.118 -4.5,-4.727c0,-2.608 0.016,1.274 4.5,1.274Z" style="fill:#794819;"/><path d="M89.481,69.547c4.483,0 4.5,-3.882 4.5,-1.274c0,2.609 -2.017,4.727 -4.5,4.727c-2.484,0 -4.5,-2.118 -4.5,-4.727c0,-2.608 0.016,1.274 4.5,1.274Z" style="fill:#794819;"/><rect x="69" y="116" width="6" height="19" style="fill:#4fc3f7;"/><path d="M77.481,101.294l-11,0l0,13.412c0,1.818 1.475,3.294 3.293,3.294l4.413,0c1.818,0 3.294,-1.476 3.294,-3.294l0,-13.412Z" style="fill:#4db6ac;"/></g></g><g id="Capa3"></g></svg>