<?xml version="1.0" encoding="UTF-8" standalone="no"?><!DOCTYPE svg PUBLIC "-//W3C//DTD SVG 1.1//EN" "http://www.w3.org/Graphics/SVG/1.1/DTD/svg11.dtd"><svg width="100%" height="100%" viewBox="0 0 144 144" version="1.1" xmlns="http://www.w3.org/2000/svg" xmlns:xlink="http://www.w3.org/1999/xlink" xml:space="preserve" xmlns:serif="http://www.serif.com/" style="fill-rule:evenodd;clip-rule:evenodd;stroke-linejoin:round;stroke-miterlimit:2;"><g id="Capa3"></g><path d="M69.554,134.722c-8.619,-0.175 -54.9,-17.739 -54.9,-101.999c37.065,-0.202 55,-26 55,-26c0,0 12.935,26.242 55,26c0,84.591 -46.645,102 -55,102l-0.1,-0.001Z" style="fill:#7446ff;"/><circle cx="80.654" cy="65.112" r="8.389" style="fill:#fff;fill-opacity:0.88;"/><path d="M80.654,76.552c7.366,0 13.346,5.934 13.346,13.243c0,7.309 -26.692,7.309 -26.692,0c0,-7.309 5.98,-13.243 13.346,-13.243Z" style="fill:#fff;fill-opacity:0.88;"/><circle cx="62.808" cy="57.723" r="11" style="fill:#fff;"/><path d="M62.995,43.224l0.186,0.004l0.185,0.006l0.185,0.008l0.185,0.011l0.184,0.012l0.183,0.016l0.183,0.017l0.182,0.02l0.182,0.022l0.181,0.024l0.181,0.026l0.179,0.029l0.179,0.031l0.179,0.033l0.177,0.035l0.177,0.038l0.176,0.039l0.175,0.042l0.175,0.043l0.173,0.046l0.173,0.048l0.172,0.05l0.171,0.052l0.17,0.054l0.169,0.057l0.169,0.058l0.167,0.06l0.166,0.062l0.166,0.064l0.164,0.066l0.163,0.068l0.163,0.07l0.161,0.072l0.16,0.073l0.159,0.076l0.158,0.077l0.157,0.08l0.156,0.081l0.155,0.083l0.154,0.084l0.152,0.087l0.151,0.088l0.15,0.09l0.149,0.092l0.148,0.093l0.146,0.095l0.145,0.097l0.144,0.099l0.143,0.1l0.141,0.102l0.14,0.103l0.139,0.105l0.138,0.107l0.136,0.108l0.134,0.11l0.134,0.112l0.132,0.113l0.131,0.114l0.129,0.116l0.128,0.118l0.126,0.119l0.125,0.121l0.124,0.122l0.122,0.123l0.12,0.125l0.119,0.127l0.118,0.128l0.116,0.129l0.115,0.131l0.113,0.132l0.111,0.133l0.11,0.135l0.108,0.136l0.107,0.137l0.105,0.139l0.104,0.14l0.102,0.142l0.1,0.142l0.098,0.144l0.097,0.145l0.095,0.147l0.094,0.147l0.091,0.149l0.09,0.15l0.089,0.152l0.086,0.152l0.085,0.154l0.083,0.154l0.081,0.156l0.079,0.157l0.077,0.158l0.076,0.159l0.074,0.16l0.071,0.162l0.07,0.162l0.068,0.163l0.066,0.165l0.064,0.165l0.062,0.166l0.061,0.168l0.058,0.168l0.056,0.169l0.054,0.17l0.052,0.172l0.05,0.171l0.048,0.173l0.046,0.174l0.044,0.174l0.041,0.175l0.04,0.176l0.037,0.177l0.035,0.178l0.034,0.178l0.03,0.179l0.029,0.18l0.026,0.18l0.025,0.181l0.022,0.182l0.019,0.182l0.018,0.183l0.015,0.184l0.013,0.184l0.01,0.184l0.009,0.185l0.005,0.186l0.004,0.186l0.001,0.186l-0.001,0.187l-0.004,0.186l-0.005,0.185l-0.009,0.186l-0.01,0.184l-0.013,0.184l-0.015,0.183l-0.018,0.183l-0.019,0.183l-0.022,0.181l-0.025,0.181l-0.026,0.181l-0.029,0.18l-0.03,0.179l-0.034,0.178l-0.035,0.177l-0.037,0.177l-0.04,0.176l-0.041,0.176l-0.044,0.174l-0.046,0.174l-0.048,0.172l-0.05,0.172l-0.052,0.171l-0.054,0.17l-0.056,0.17l-0.058,0.168l-0.061,0.167l-0.062,0.166l-0.064,0.166l-0.066,0.164l-0.068,0.164l-0.07,0.162l-0.071,0.161l-0.074,0.16l-0.076,0.16l-0.077,0.158l-0.079,0.157l-0.081,0.155l-0.083,0.155l-0.085,0.154l-0.086,0.152l-0.089,0.151l-0.09,0.151l-0.091,0.148l-0.094,0.148l-0.095,0.146l-0.097,0.146l-0.098,0.144l-0.1,0.142l-0.102,0.142l-0.104,0.14l-0.105,0.138l-0.107,0.138l-0.108,0.136l-0.11,0.135l-0.111,0.133l-0.113,0.132l-0.115,0.131l-0.116,0.129l-0.118,0.128l-0.119,0.126l-0.12,0.125l-0.122,0.124l-0.124,0.122l-0.125,0.121l-0.126,0.119l-0.128,0.117l-0.129,0.116l-0.131,0.115l-0.132,0.113l-0.134,0.111l-0.134,0.11l-0.136,0.109l-0.138,0.106l-0.139,0.106l-0.14,0.103l-0.141,0.102l-0.143,0.1l-0.144,0.099l-0.145,0.096l-0.146,0.096l-0.148,0.093l-0.149,0.092l-0.15,0.09l-0.151,0.088l-0.152,0.086l-0.154,0.085l-0.155,0.083l-0.156,0.081l-0.157,0.079l-0.158,0.078l-0.159,0.075l-0.16,0.074l-0.161,0.072l-0.163,0.07l-0.163,0.068l-0.164,0.066l-0.166,0.064l-0.166,0.062l-0.167,0.06l-0.169,0.058l-0.169,0.056l-0.17,0.054l-0.171,0.052l-0.172,0.05l-0.173,0.048l-0.173,0.046l-0.175,0.044l-0.175,0.042l-0.176,0.039l-0.177,0.038l-0.177,0.035l-0.179,0.033l-0.179,0.031l-0.179,0.028l-0.181,0.027l-0.181,0.024l-0.182,0.022l-0.182,0.02l-0.183,0.017l-0.183,0.015l-0.184,0.013l-0.185,0.011l-0.185,0.008l-0.185,0.006l-0.186,0.003l-0.187,0.001l-0.186,-0.001l-0.186,-0.003l-0.186,-0.006l-0.185,-0.008l-0.185,-0.011l-0.184,-0.013l-0.183,-0.015l-0.183,-0.017l-0.182,-0.02l-0.182,-0.022l-0.181,-0.024l-0.18,-0.027l-0.18,-0.028l-0.179,-0.031l-0.178,-0.033l-0.178,-0.035l-0.177,-0.038l-0.176,-0.039l-0.175,-0.042l-0.175,-0.044l-0.173,-0.046l-0.173,-0.048l-0.172,-0.05l-0.171,-0.052l-0.17,-0.054l-0.169,-0.056l-0.168,-0.058l-0.168,-0.06l-0.166,-0.062l-0.165,-0.064l-0.165,-0.066l-0.163,-0.068l-0.162,-0.07l-0.162,-0.072l-0.16,-0.074l-0.159,-0.075l-0.158,-0.078l-0.157,-0.079l-0.156,-0.081l-0.155,-0.083l-0.153,-0.085l-0.153,-0.086l-0.151,-0.088l-0.15,-0.09l-0.149,-0.092l-0.148,-0.093l-0.146,-0.096l-0.145,-0.096l-0.144,-0.099l-0.143,-0.1l-0.141,-0.102l-0.14,-0.103l-0.139,-0.106l-0.137,-0.106l-0.137,-0.109l-0.134,-0.11l-0.134,-0.111l-0.132,-0.113l-0.13,-0.115l-0.13,-0.116l-0.128,-0.117l-0.126,-0.119l-0.125,-0.121l-0.124,-0.122l-0.122,-0.124l-0.12,-0.125l-0.119,-0.126l-0.118,-0.128l-0.116,-0.129l-0.115,-0.131l-0.113,-0.132l-0.111,-0.133l-0.11,-0.135l-0.108,-0.136l-0.107,-0.138l-0.105,-0.138l-0.104,-0.14l-0.101,-0.142l-0.101,-0.142l-0.098,-0.144l-0.097,-0.146l-0.095,-0.146l-0.094,-0.148l-0.091,-0.148l-0.09,-0.151l-0.089,-0.151l-0.086,-0.152l-0.085,-0.154l-0.083,-0.155l-0.081,-0.155l-0.079,-0.157l-0.077,-0.158l-0.076,-0.16l-0.073,-0.16l-0.072,-0.161l-0.07,-0.162l-0.068,-0.164l-0.066,-0.164l-0.064,-0.166l-0.062,-0.166l-0.061,-0.167l-0.058,-0.168l-0.056,-0.17l-0.054,-0.17l-0.052,-0.171l-0.05,-0.172l-0.048,-0.172l-0.046,-0.174l-0.044,-0.174l-0.041,-0.176l-0.04,-0.176l-0.037,-0.177l-0.035,-0.177l-0.033,-0.178l-0.031,-0.179l-0.029,-0.18l-0.026,-0.181l-0.025,-0.181l-0.022,-0.181l-0.019,-0.183l-0.018,-0.182l-0.015,-0.184l-0.013,-0.184l-0.01,-0.184l-0.008,-0.186l-0.006,-0.185l-0.004,-0.186l-0.001,-0.187l0.001,-0.186l0.004,-0.186l0.006,-0.186l0.008,-0.185l0.01,-0.184l0.013,-0.184l0.015,-0.184l0.018,-0.183l0.019,-0.182l0.022,-0.182l0.025,-0.181l0.026,-0.18l0.029,-0.18l0.031,-0.179l0.033,-0.178l0.035,-0.178l0.037,-0.177l0.04,-0.176l0.041,-0.175l0.044,-0.174l0.046,-0.174l0.048,-0.173l0.05,-0.172l0.052,-0.171l0.054,-0.17l0.056,-0.169l0.058,-0.168l0.061,-0.167l0.062,-0.167l0.064,-0.165l0.066,-0.165l0.068,-0.163l0.07,-0.162l0.072,-0.162l0.073,-0.16l0.076,-0.159l0.077,-0.158l0.079,-0.157l0.081,-0.156l0.083,-0.155l0.085,-0.153l0.086,-0.152l0.089,-0.152l0.09,-0.15l0.091,-0.149l0.094,-0.147l0.095,-0.147l0.097,-0.145l0.098,-0.144l0.101,-0.142l0.101,-0.142l0.104,-0.14l0.105,-0.139l0.107,-0.137l0.108,-0.136l0.11,-0.135l0.111,-0.133l0.113,-0.132l0.115,-0.131l0.116,-0.129l0.118,-0.128l0.119,-0.127l0.12,-0.125l0.122,-0.123l0.124,-0.122l0.125,-0.121l0.126,-0.119l0.128,-0.118l0.13,-0.116l0.13,-0.114l0.132,-0.113l0.134,-0.112l0.134,-0.11l0.137,-0.108l0.137,-0.107l0.139,-0.105l0.14,-0.103l0.141,-0.102l0.143,-0.1l0.144,-0.099l0.145,-0.097l0.146,-0.095l0.148,-0.093l0.149,-0.092l0.15,-0.09l0.151,-0.088l0.153,-0.087l0.153,-0.084l0.155,-0.083l0.156,-0.081l0.157,-0.08l0.158,-0.077l0.159,-0.076l0.16,-0.073l0.162,-0.072l0.162,-0.07l0.163,-0.068l0.165,-0.066l0.165,-0.064l0.166,-0.062l0.168,-0.06l0.168,-0.058l0.169,-0.057l0.17,-0.054l0.171,-0.052l0.172,-0.05l0.173,-0.048l0.173,-0.046l0.175,-0.043l0.175,-0.042l0.176,-0.039l0.177,-0.038l0.178,-0.035l0.178,-0.033l0.179,-0.031l0.18,-0.029l0.18,-0.026l0.181,-0.024l0.182,-0.022l0.182,-0.02l0.183,-0.017l0.183,-0.016l0.184,-0.012l0.185,-0.011l0.185,-0.008l0.186,-0.006l0.186,-0.004l0.186,-0.001l0.187,0.001Zm-0.329,3.5l-0.142,0.003l-0.141,0.004l-0.141,0.007l-0.14,0.008l-0.14,0.009l-0.139,0.012l-0.139,0.013l-0.138,0.015l-0.138,0.017l-0.137,0.018l-0.137,0.02l-0.136,0.022l-0.136,0.023l-0.135,0.025l-0.135,0.027l-0.134,0.028l-0.133,0.03l-0.133,0.032l-0.132,0.033l-0.131,0.035l-0.131,0.036l-0.13,0.038l-0.129,0.039l-0.129,0.041l-0.128,0.043l-0.128,0.044l-0.126,0.045l-0.126,0.047l-0.126,0.049l-0.124,0.05l-0.124,0.051l-0.123,0.053l-0.122,0.055l-0.122,0.056l-0.12,0.057l-0.12,0.058l-0.119,0.061l-0.118,0.061l-0.117,0.063l-0.117,0.064l-0.115,0.066l-0.115,0.067l-0.114,0.068l-0.113,0.069l-0.112,0.071l-0.111,0.073l-0.11,0.073l-0.11,0.075l-0.108,0.076l-0.107,0.077l-0.107,0.079l-0.105,0.08l-0.104,0.081l-0.104,0.082l-0.102,0.084l-0.102,0.084l-0.1,0.086l-0.099,0.087l-0.098,0.088l-0.098,0.09l-0.096,0.09l-0.095,0.092l-0.094,0.093l-0.092,0.094l-0.092,0.095l-0.091,0.096l-0.089,0.097l-0.088,0.098l-0.087,0.099l-0.086,0.101l-0.085,0.101l-0.083,0.102l-0.083,0.104l-0.081,0.104l-0.079,0.106l-0.079,0.106l-0.077,0.107l-0.076,0.109l-0.075,0.109l-0.074,0.11l-0.072,0.111l-0.071,0.112l-0.069,0.113l-0.069,0.114l-0.067,0.115l-0.065,0.115l-0.064,0.117l-0.063,0.117l-0.062,0.118l-0.06,0.119l-0.059,0.12l-0.057,0.121l-0.056,0.121l-0.054,0.122l-0.053,0.123l-0.051,0.124l-0.05,0.125l-0.049,0.125l-0.047,0.126l-0.046,0.127l-0.044,0.127l-0.042,0.128l-0.041,0.129l-0.039,0.129l-0.038,0.13l-0.037,0.131l-0.034,0.132l-0.034,0.132l-0.031,0.132l-0.03,0.134l-0.028,0.134l-0.027,0.134l-0.025,0.135l-0.023,0.136l-0.022,0.136l-0.02,0.137l-0.018,0.137l-0.017,0.138l-0.015,0.138l-0.013,0.139l-0.012,0.14l-0.01,0.139l-0.008,0.141l-0.006,0.14l-0.004,0.142l-0.003,0.141l-0.001,0.142l0.001,0.142l0.003,0.142l0.004,0.141l0.006,0.141l0.008,0.14l0.01,0.14l0.012,0.14l0.013,0.138l0.015,0.139l0.017,0.138l0.018,0.137l0.02,0.137l0.022,0.136l0.023,0.135l0.025,0.136l0.027,0.134l0.028,0.134l0.03,0.133l0.031,0.133l0.034,0.132l0.034,0.132l0.037,0.13l0.038,0.13l0.039,0.13l0.041,0.129l0.042,0.128l0.044,0.127l0.046,0.127l0.047,0.126l0.049,0.125l0.05,0.125l0.051,0.123l0.053,0.123l0.054,0.123l0.056,0.121l0.057,0.121l0.059,0.119l0.06,0.119l0.062,0.118l0.063,0.118l0.064,0.116l0.065,0.116l0.067,0.115l0.069,0.113l0.069,0.113l0.071,0.112l0.072,0.112l0.074,0.11l0.075,0.109l0.076,0.108l0.077,0.108l0.079,0.106l0.079,0.105l0.081,0.105l0.083,0.103l0.083,0.103l0.085,0.101l0.086,0.1l0.087,0.1l0.088,0.098l0.089,0.097l0.091,0.096l0.092,0.095l0.092,0.094l0.094,0.093l0.095,0.091l0.096,0.091l0.098,0.089l0.098,0.089l0.099,0.087l0.1,0.085l0.102,0.085l0.102,0.084l0.104,0.082l0.104,0.081l0.105,0.08l0.107,0.078l0.107,0.078l0.108,0.076l0.11,0.075l0.11,0.073l0.111,0.072l0.112,0.071l0.113,0.07l0.114,0.068l0.115,0.067l0.115,0.066l0.117,0.064l0.117,0.063l0.118,0.061l0.119,0.06l0.12,0.059l0.12,0.057l0.122,0.056l0.122,0.054l0.123,0.053l0.124,0.052l0.124,0.05l0.126,0.048l0.126,0.047l0.126,0.046l0.128,0.044l0.128,0.042l0.129,0.041l0.129,0.04l0.13,0.038l0.131,0.036l0.131,0.035l0.132,0.033l0.133,0.031l0.133,0.03l0.134,0.029l0.135,0.026l0.135,0.025l0.136,0.024l0.136,0.022l0.137,0.02l0.137,0.018l0.138,0.017l0.138,0.015l0.139,0.013l0.139,0.011l0.14,0.01l0.14,0.008l0.141,0.006l0.141,0.005l0.142,0.002l0.142,0.001l0.142,-0.001l0.142,-0.002l0.141,-0.005l0.141,-0.006l0.14,-0.008l0.14,-0.01l0.139,-0.011l0.139,-0.013l0.138,-0.015l0.138,-0.017l0.138,-0.018l0.136,-0.02l0.137,-0.022l0.135,-0.024l0.135,-0.025l0.135,-0.026l0.134,-0.029l0.133,-0.03l0.133,-0.031l0.132,-0.033l0.131,-0.035l0.131,-0.036l0.13,-0.038l0.13,-0.04l0.128,-0.041l0.129,-0.042l0.127,-0.044l0.127,-0.046l0.126,-0.047l0.125,-0.048l0.124,-0.05l0.124,-0.052l0.123,-0.053l0.122,-0.054l0.122,-0.056l0.12,-0.057l0.12,-0.059l0.119,-0.06l0.118,-0.061l0.118,-0.063l0.116,-0.064l0.116,-0.066l0.114,-0.067l0.114,-0.068l0.113,-0.07l0.112,-0.071l0.111,-0.072l0.11,-0.073l0.11,-0.075l0.108,-0.076l0.107,-0.078l0.107,-0.078l0.105,-0.08l0.105,-0.081l0.103,-0.082l0.102,-0.084l0.102,-0.085l0.1,-0.085l0.099,-0.087l0.099,-0.089l0.097,-0.089l0.096,-0.091l0.095,-0.091l0.094,-0.093l0.092,-0.094l0.092,-0.095l0.091,-0.096l0.089,-0.097l0.088,-0.098l0.087,-0.1l0.086,-0.1l0.085,-0.101l0.083,-0.103l0.083,-0.103l0.081,-0.105l0.08,-0.105l0.078,-0.106l0.077,-0.108l0.077,-0.108l0.074,-0.109l0.074,-0.11l0.072,-0.112l0.071,-0.112l0.07,-0.113l0.068,-0.113l0.067,-0.115l0.065,-0.116l0.065,-0.116l0.062,-0.118l0.062,-0.118l0.06,-0.119l0.059,-0.119l0.057,-0.121l0.056,-0.121l0.054,-0.123l0.053,-0.123l0.052,-0.123l0.05,-0.125l0.048,-0.125l0.047,-0.126l0.046,-0.127l0.044,-0.127l0.042,-0.128l0.041,-0.129l0.04,-0.13l0.037,-0.13l0.037,-0.13l0.035,-0.132l0.033,-0.132l0.031,-0.133l0.03,-0.133l0.028,-0.134l0.027,-0.134l0.025,-0.136l0.024,-0.135l0.021,-0.136l0.02,-0.137l0.019,-0.137l0.016,-0.138l0.015,-0.139l0.013,-0.138l0.012,-0.14l0.01,-0.14l0.008,-0.14l0.006,-0.141l0.004,-0.141l0.003,-0.142l0.001,-0.142l-0.001,-0.142l-0.003,-0.141l-0.004,-0.142l-0.006,-0.14l-0.008,-0.141l-0.01,-0.139l-0.012,-0.14l-0.013,-0.139l-0.015,-0.138l-0.016,-0.138l-0.019,-0.137l-0.02,-0.137l-0.021,-0.136l-0.024,-0.136l-0.025,-0.135l-0.027,-0.134l-0.028,-0.134l-0.03,-0.134l-0.031,-0.132l-0.033,-0.132l-0.035,-0.132l-0.037,-0.131l-0.037,-0.13l-0.04,-0.129l-0.041,-0.129l-0.042,-0.128l-0.044,-0.127l-0.046,-0.127l-0.047,-0.126l-0.048,-0.125l-0.05,-0.125l-0.052,-0.124l-0.053,-0.123l-0.054,-0.122l-0.056,-0.121l-0.057,-0.121l-0.059,-0.12l-0.06,-0.119l-0.062,-0.118l-0.062,-0.117l-0.065,-0.117l-0.065,-0.115l-0.067,-0.115l-0.068,-0.114l-0.07,-0.113l-0.071,-0.112l-0.072,-0.111l-0.074,-0.11l-0.074,-0.109l-0.077,-0.109l-0.077,-0.107l-0.078,-0.106l-0.08,-0.106l-0.081,-0.104l-0.083,-0.104l-0.083,-0.102l-0.085,-0.101l-0.086,-0.101l-0.087,-0.099l-0.088,-0.098l-0.089,-0.097l-0.091,-0.096l-0.092,-0.095l-0.092,-0.094l-0.094,-0.093l-0.095,-0.092l-0.096,-0.09l-0.097,-0.09l-0.099,-0.088l-0.099,-0.087l-0.1,-0.086l-0.102,-0.084l-0.102,-0.084l-0.103,-0.082l-0.105,-0.081l-0.105,-0.08l-0.107,-0.079l-0.107,-0.077l-0.108,-0.076l-0.11,-0.075l-0.11,-0.073l-0.111,-0.073l-0.112,-0.071l-0.113,-0.069l-0.114,-0.068l-0.114,-0.067l-0.116,-0.066l-0.116,-0.064l-0.118,-0.063l-0.118,-0.061l-0.119,-0.061l-0.12,-0.058l-0.12,-0.057l-0.122,-0.056l-0.122,-0.055l-0.123,-0.053l-0.124,-0.051l-0.124,-0.05l-0.125,-0.049l-0.126,-0.047l-0.127,-0.045l-0.127,-0.044l-0.129,-0.043l-0.128,-0.041l-0.13,-0.039l-0.13,-0.038l-0.131,-0.036l-0.131,-0.035l-0.132,-0.033l-0.133,-0.032l-0.133,-0.03l-0.134,-0.028l-0.135,-0.027l-0.135,-0.025l-0.135,-0.023l-0.137,-0.022l-0.136,-0.02l-0.138,-0.018l-0.138,-0.017l-0.138,-0.015l-0.139,-0.013l-0.139,-0.012l-0.14,-0.009l-0.14,-0.008l-0.141,-0.007l-0.141,-0.004l-0.142,-0.003l-0.142,-0.001l-0.142,0.001Z" style="fill:#7446ff;"/><path d="M62.808,72.723c9.659,0 17.5,7.781 17.5,17.366c0,9.584 -35,9.584 -35,0c0,-9.585 7.842,-17.366 17.5,-17.366Z" style="fill:#fff;"/><path d="M63.078,69.225l0.27,0.005l0.268,0.009l0.268,0.011l0.267,0.015l0.267,0.019l0.265,0.022l0.265,0.025l0.263,0.028l0.263,0.031l0.262,0.035l0.261,0.038l0.26,0.041l0.259,0.045l0.257,0.047l0.257,0.05l0.256,0.054l0.254,0.057l0.254,0.06l0.252,0.062l0.251,0.066l0.25,0.069l0.248,0.072l0.248,0.074l0.246,0.078l0.244,0.081l0.244,0.083l0.242,0.086l0.24,0.09l0.239,0.092l0.238,0.094l0.236,0.098l0.235,0.1l0.234,0.103l0.231,0.106l0.231,0.109l0.228,0.111l0.228,0.113l0.225,0.117l0.224,0.119l0.222,0.122l0.221,0.124l0.219,0.127l0.217,0.129l0.216,0.132l0.214,0.134l0.212,0.137l0.21,0.139l0.209,0.141l0.206,0.144l0.205,0.147l0.203,0.149l0.201,0.151l0.199,0.153l0.197,0.156l0.196,0.158l0.193,0.16l0.192,0.163l0.189,0.165l0.187,0.167l0.186,0.169l0.183,0.171l0.181,0.174l0.179,0.175l0.177,0.178l0.175,0.18l0.173,0.182l0.171,0.184l0.168,0.186l0.166,0.188l0.164,0.19l0.162,0.192l0.159,0.194l0.157,0.196l0.155,0.198l0.152,0.2l0.151,0.201l0.147,0.204l0.146,0.205l0.142,0.207l0.141,0.209l0.138,0.211l0.136,0.212l0.133,0.215l0.13,0.216l0.128,0.217l0.125,0.22l0.123,0.221l0.121,0.222l0.117,0.225l0.115,0.226l0.112,0.227l0.11,0.229l0.107,0.231l0.104,0.232l0.101,0.234l0.099,0.235l0.096,0.236l0.093,0.238l0.09,0.24l0.087,0.241l0.084,0.242l0.082,0.243l0.078,0.245l0.076,0.247l0.072,0.247l0.07,0.249l0.067,0.25l0.063,0.251l0.06,0.252l0.058,0.254l0.054,0.254l0.051,0.256l0.048,0.257l0.045,0.257l0.041,0.259l0.039,0.26l0.035,0.261l0.032,0.262l0.028,0.262l0.026,0.264l0.022,0.264l0.018,0.266l0.016,0.266l0.012,0.267l0.008,0.267l0.005,0.269l0.002,0.27l-0.001,0.104l-0.002,0.107l-0.004,0.106l-0.005,0.105l-0.007,0.106l-0.008,0.106l-0.01,0.105l-0.012,0.105l-0.012,0.105l-0.015,0.104l-0.016,0.104l-0.017,0.104l-0.019,0.104l-0.021,0.103l-0.021,0.102l-0.024,0.102l-0.024,0.102l-0.027,0.101l-0.027,0.101l-0.029,0.099l-0.03,0.1l-0.032,0.098l-0.033,0.099l-0.034,0.097l-0.036,0.096l-0.041,0.108l-0.073,0.178l-0.082,0.187l-0.087,0.183l-0.091,0.18l-0.095,0.177l-0.099,0.173l-0.103,0.17l-0.107,0.166l-0.11,0.163l-0.113,0.16l-0.116,0.156l-0.12,0.152l-0.122,0.149l-0.124,0.146l-0.127,0.143l-0.13,0.139l-0.132,0.137l-0.134,0.133l-0.136,0.13l-0.138,0.127l-0.14,0.125l-0.142,0.121l-0.143,0.119l-0.146,0.117l-0.147,0.113l-0.148,0.112l-0.15,0.109l-0.152,0.106l-0.153,0.104l-0.155,0.103l-0.156,0.1l-0.157,0.097l-0.159,0.096l-0.16,0.094l-0.162,0.092l-0.162,0.09l-0.165,0.089l-0.165,0.086l-0.167,0.085l-0.167,0.083l-0.17,0.082l-0.17,0.08l-0.171,0.078l-0.173,0.077l-0.174,0.075l-0.175,0.074l-0.177,0.073l-0.177,0.071l-0.179,0.069l-0.179,0.068l-0.181,0.067l-0.182,0.066l-0.183,0.064l-0.184,0.063l-0.186,0.062l-0.186,0.06l-0.187,0.06l-0.188,0.058l-0.19,0.057l-0.19,0.055l-0.192,0.055l-0.192,0.053l-0.193,0.052l-0.195,0.051l-0.195,0.05l-0.196,0.049l-0.197,0.048l-0.198,0.047l-0.199,0.045l-0.2,0.045l-0.2,0.043l-0.202,0.043l-0.202,0.041l-0.203,0.04l-0.204,0.039l-0.204,0.039l-0.205,0.037l-0.207,0.036l-0.206,0.035l-0.208,0.034l-0.208,0.033l-0.209,0.033l-0.209,0.031l-0.21,0.03l-0.211,0.029l-0.211,0.028l-0.212,0.027l-0.213,0.027l-0.213,0.025l-0.213,0.024l-0.214,0.023l-0.215,0.023l-0.215,0.021l-0.215,0.02l-0.216,0.02l-0.216,0.018l-0.217,0.018l-0.217,0.016l-0.217,0.016l-0.218,0.015l-0.217,0.013l-0.219,0.013l-0.218,0.012l-0.219,0.011l-0.219,0.01l-0.219,0.009l-0.219,0.008l-0.22,0.007l-0.219,0.006l-0.22,0.005l-0.22,0.004l-0.22,0.003l-0.22,0.003l-0.22,0.001l-0.22,0.001l-0.22,-0.001l-0.22,-0.001l-0.22,-0.003l-0.22,-0.003l-0.22,-0.004l-0.22,-0.005l-0.219,-0.006l-0.22,-0.007l-0.219,-0.008l-0.219,-0.009l-0.219,-0.01l-0.219,-0.011l-0.218,-0.012l-0.218,-0.013l-0.218,-0.013l-0.218,-0.015l-0.217,-0.016l-0.217,-0.016l-0.217,-0.018l-0.216,-0.018l-0.216,-0.02l-0.215,-0.02l-0.215,-0.021l-0.215,-0.023l-0.214,-0.023l-0.213,-0.024l-0.213,-0.025l-0.212,-0.027l-0.212,-0.027l-0.212,-0.028l-0.21,-0.029l-0.211,-0.03l-0.209,-0.031l-0.209,-0.033l-0.208,-0.033l-0.207,-0.034l-0.207,-0.035l-0.206,-0.036l-0.206,-0.037l-0.204,-0.039l-0.204,-0.039l-0.203,-0.04l-0.202,-0.041l-0.202,-0.043l-0.2,-0.043l-0.2,-0.045l-0.199,-0.045l-0.198,-0.047l-0.197,-0.048l-0.196,-0.049l-0.195,-0.05l-0.195,-0.051l-0.193,-0.052l-0.192,-0.053l-0.192,-0.055l-0.19,-0.055l-0.189,-0.057l-0.189,-0.058l-0.187,-0.06l-0.186,-0.06l-0.185,-0.062l-0.185,-0.063l-0.183,-0.064l-0.182,-0.066l-0.18,-0.067l-0.18,-0.068l-0.179,-0.069l-0.177,-0.071l-0.177,-0.073l-0.175,-0.074l-0.174,-0.075l-0.172,-0.077l-0.172,-0.078l-0.17,-0.08l-0.169,-0.082l-0.168,-0.083l-0.167,-0.085l-0.165,-0.086l-0.164,-0.089l-0.163,-0.09l-0.162,-0.092l-0.16,-0.094l-0.159,-0.096l-0.157,-0.097l-0.156,-0.1l-0.155,-0.103l-0.153,-0.104l-0.151,-0.106l-0.151,-0.109l-0.148,-0.112l-0.147,-0.113l-0.145,-0.117l-0.144,-0.119l-0.142,-0.121l-0.14,-0.125l-0.138,-0.127l-0.136,-0.13l-0.134,-0.133l-0.132,-0.137l-0.129,-0.139l-0.128,-0.143l-0.124,-0.146l-0.122,-0.149l-0.12,-0.152l-0.116,-0.156l-0.113,-0.16l-0.11,-0.163l-0.107,-0.166l-0.103,-0.17l-0.099,-0.173l-0.095,-0.177l-0.091,-0.18l-0.087,-0.183l-0.082,-0.187l-0.073,-0.178l-0.041,-0.107l-0.036,-0.097l-0.034,-0.097l-0.033,-0.099l-0.031,-0.098l-0.031,-0.1l-0.029,-0.099l-0.027,-0.101l-0.026,-0.101l-0.025,-0.102l-0.023,-0.102l-0.022,-0.102l-0.021,-0.103l-0.019,-0.104l-0.017,-0.104l-0.016,-0.104l-0.014,-0.104l-0.013,-0.105l-0.012,-0.105l-0.01,-0.105l-0.008,-0.106l-0.007,-0.106l-0.005,-0.105l-0.004,-0.106l-0.002,-0.106l-0.001,-0.105l0.002,-0.27l0.005,-0.269l0.008,-0.267l0.012,-0.267l0.016,-0.266l0.018,-0.266l0.022,-0.264l0.026,-0.264l0.028,-0.262l0.032,-0.262l0.035,-0.261l0.039,-0.26l0.041,-0.259l0.045,-0.257l0.048,-0.257l0.051,-0.256l0.054,-0.254l0.058,-0.254l0.06,-0.252l0.064,-0.251l0.066,-0.25l0.07,-0.249l0.072,-0.247l0.076,-0.247l0.078,-0.245l0.082,-0.243l0.084,-0.242l0.087,-0.241l0.09,-0.24l0.093,-0.238l0.096,-0.236l0.099,-0.235l0.101,-0.234l0.104,-0.232l0.107,-0.231l0.11,-0.229l0.112,-0.227l0.115,-0.226l0.118,-0.225l0.12,-0.222l0.123,-0.221l0.125,-0.22l0.128,-0.217l0.131,-0.216l0.133,-0.215l0.135,-0.212l0.138,-0.211l0.141,-0.209l0.143,-0.207l0.145,-0.205l0.148,-0.204l0.15,-0.201l0.152,-0.2l0.155,-0.198l0.157,-0.196l0.159,-0.194l0.162,-0.192l0.164,-0.19l0.166,-0.188l0.169,-0.186l0.17,-0.184l0.173,-0.182l0.175,-0.18l0.177,-0.178l0.179,-0.175l0.181,-0.174l0.183,-0.171l0.186,-0.169l0.187,-0.167l0.19,-0.165l0.191,-0.163l0.193,-0.16l0.196,-0.158l0.197,-0.156l0.199,-0.153l0.201,-0.151l0.203,-0.149l0.205,-0.147l0.207,-0.144l0.208,-0.141l0.21,-0.139l0.212,-0.137l0.214,-0.134l0.216,-0.132l0.217,-0.129l0.219,-0.127l0.221,-0.124l0.222,-0.122l0.224,-0.119l0.225,-0.117l0.228,-0.113l0.228,-0.111l0.231,-0.109l0.231,-0.106l0.234,-0.103l0.235,-0.1l0.236,-0.098l0.238,-0.094l0.239,-0.092l0.24,-0.09l0.242,-0.086l0.244,-0.083l0.245,-0.081l0.245,-0.078l0.248,-0.074l0.248,-0.072l0.25,-0.069l0.251,-0.066l0.252,-0.062l0.254,-0.06l0.254,-0.057l0.256,-0.054l0.257,-0.05l0.257,-0.047l0.259,-0.045l0.26,-0.041l0.261,-0.038l0.262,-0.035l0.263,-0.031l0.264,-0.028l0.264,-0.025l0.266,-0.022l0.266,-0.019l0.267,-0.015l0.268,-0.011l0.269,-0.009l0.269,-0.005l0.27,-0.002l0.27,0.002Zm-0.496,3.5l-0.225,0.004l-0.225,0.007l-0.224,0.01l-0.223,0.013l-0.223,0.015l-0.221,0.018l-0.221,0.021l-0.22,0.024l-0.22,0.026l-0.218,0.029l-0.218,0.032l-0.216,0.034l-0.216,0.037l-0.215,0.039l-0.214,0.042l-0.213,0.045l-0.212,0.047l-0.211,0.05l-0.21,0.052l-0.209,0.055l-0.208,0.058l-0.208,0.059l-0.205,0.063l-0.205,0.064l-0.204,0.067l-0.203,0.07l-0.201,0.072l-0.201,0.074l-0.199,0.077l-0.198,0.079l-0.197,0.081l-0.196,0.083l-0.194,0.086l-0.193,0.088l-0.192,0.091l-0.191,0.092l-0.189,0.095l-0.188,0.097l-0.187,0.1l-0.185,0.101l-0.184,0.103l-0.182,0.106l-0.181,0.108l-0.18,0.11l-0.178,0.112l-0.177,0.114l-0.176,0.116l-0.173,0.118l-0.173,0.12l-0.17,0.122l-0.17,0.124l-0.167,0.126l-0.166,0.128l-0.165,0.13l-0.163,0.132l-0.161,0.133l-0.16,0.136l-0.158,0.137l-0.156,0.14l-0.155,0.141l-0.152,0.143l-0.152,0.144l-0.149,0.147l-0.147,0.148l-0.146,0.15l-0.144,0.152l-0.142,0.153l-0.141,0.155l-0.138,0.157l-0.137,0.158l-0.135,0.16l-0.133,0.162l-0.13,0.163l-0.129,0.165l-0.127,0.166l-0.125,0.168l-0.123,0.17l-0.122,0.171l-0.119,0.172l-0.116,0.174l-0.115,0.176l-0.113,0.177l-0.111,0.178l-0.109,0.18l-0.106,0.181l-0.104,0.182l-0.102,0.184l-0.1,0.185l-0.098,0.187l-0.096,0.188l-0.093,0.189l-0.091,0.19l-0.089,0.192l-0.087,0.193l-0.084,0.194l-0.082,0.195l-0.079,0.197l-0.077,0.198l-0.075,0.198l-0.073,0.2l-0.07,0.202l-0.067,0.202l-0.066,0.203l-0.062,0.204l-0.061,0.206l-0.057,0.206l-0.056,0.208l-0.052,0.208l-0.05,0.21l-0.048,0.21l-0.045,0.212l-0.043,0.212l-0.039,0.213l-0.038,0.214l-0.034,0.215l-0.032,0.216l-0.029,0.217l-0.027,0.218l-0.024,0.218l-0.021,0.219l-0.018,0.22l-0.015,0.221l-0.013,0.222l-0.01,0.222l-0.007,0.223l-0.005,0.223l-0.001,0.225l0,0.056l0.002,0.055l0.002,0.056l0.002,0.055l0.004,0.056l0.004,0.055l0.006,0.054l0.005,0.055l0.007,0.054l0.008,0.054l0.008,0.054l0.009,0.054l0.01,0.053l0.01,0.053l0.011,0.053l0.012,0.053l0.013,0.053l0.014,0.052l0.014,0.052l0.015,0.052l0.016,0.051l0.016,0.052l0.018,0.051l0.018,0.051l0.018,0.051l0.02,0.05l0.041,0.101l0.043,0.1l0.047,0.098l0.05,0.098l0.052,0.097l0.055,0.096l0.058,0.095l0.06,0.095l0.063,0.093l0.066,0.093l0.068,0.091l0.071,0.091l0.074,0.09l0.076,0.089l0.079,0.088l0.081,0.088l0.083,0.086l0.086,0.086l0.089,0.084l0.091,0.084l0.093,0.083l0.096,0.082l0.098,0.081l0.1,0.081l0.103,0.079l0.104,0.078l0.108,0.078l0.109,0.077l0.111,0.076l0.114,0.075l0.115,0.074l0.118,0.073l0.12,0.073l0.122,0.071l0.124,0.071l0.126,0.07l0.128,0.068l0.13,0.068l0.132,0.068l0.133,0.066l0.136,0.065l0.137,0.065l0.14,0.063l0.141,0.063l0.143,0.062l0.144,0.061l0.147,0.06l0.148,0.059l0.149,0.059l0.152,0.057l0.153,0.057l0.154,0.055l0.157,0.055l0.157,0.054l0.16,0.053l0.16,0.052l0.163,0.052l0.163,0.05l0.165,0.05l0.167,0.049l0.168,0.047l0.169,0.047l0.171,0.046l0.172,0.046l0.173,0.044l0.174,0.043l0.176,0.043l0.177,0.042l0.178,0.04l0.179,0.04l0.18,0.039l0.181,0.038l0.183,0.038l0.183,0.036l0.185,0.036l0.186,0.034l0.186,0.034l0.188,0.033l0.188,0.032l0.189,0.031l0.19,0.03l0.191,0.03l0.192,0.028l0.193,0.028l0.193,0.027l0.195,0.026l0.194,0.025l0.196,0.024l0.196,0.023l0.197,0.022l0.198,0.022l0.198,0.021l0.199,0.019l0.199,0.019l0.2,0.018l0.2,0.017l0.201,0.017l0.201,0.015l0.202,0.014l0.202,0.014l0.202,0.013l0.203,0.012l0.203,0.01l0.204,0.011l0.203,0.009l0.204,0.008l0.205,0.008l0.204,0.006l0.204,0.006l0.205,0.005l0.205,0.004l0.205,0.003l0.205,0.002l0.205,0.001l0.205,0.001l0.205,-0.001l0.205,-0.001l0.205,-0.002l0.205,-0.003l0.205,-0.004l0.205,-0.005l0.204,-0.006l0.205,-0.006l0.204,-0.008l0.204,-0.008l0.203,-0.009l0.204,-0.011l0.203,-0.01l0.203,-0.012l0.202,-0.013l0.202,-0.014l0.202,-0.014l0.201,-0.015l0.201,-0.017l0.2,-0.017l0.2,-0.018l0.199,-0.019l0.199,-0.019l0.198,-0.021l0.198,-0.022l0.197,-0.022l0.196,-0.023l0.196,-0.024l0.195,-0.025l0.194,-0.026l0.193,-0.027l0.193,-0.028l0.192,-0.028l0.191,-0.03l0.19,-0.03l0.189,-0.031l0.189,-0.032l0.187,-0.033l0.187,-0.034l0.185,-0.034l0.185,-0.036l0.183,-0.036l0.183,-0.038l0.181,-0.038l0.18,-0.039l0.18,-0.04l0.178,-0.04l0.176,-0.042l0.176,-0.043l0.174,-0.043l0.174,-0.044l0.171,-0.046l0.171,-0.046l0.169,-0.047l0.168,-0.047l0.167,-0.049l0.165,-0.05l0.164,-0.05l0.162,-0.052l0.161,-0.052l0.159,-0.053l0.158,-0.054l0.156,-0.055l0.154,-0.055l0.153,-0.057l0.152,-0.057l0.149,-0.059l0.148,-0.059l0.147,-0.06l0.144,-0.061l0.143,-0.062l0.141,-0.063l0.14,-0.063l0.137,-0.065l0.136,-0.065l0.133,-0.066l0.132,-0.068l0.13,-0.068l0.128,-0.068l0.126,-0.07l0.124,-0.071l0.122,-0.071l0.12,-0.073l0.118,-0.073l0.115,-0.074l0.114,-0.075l0.111,-0.076l0.11,-0.077l0.107,-0.078l0.104,-0.078l0.103,-0.079l0.1,-0.081l0.098,-0.081l0.096,-0.082l0.093,-0.083l0.091,-0.084l0.089,-0.084l0.086,-0.086l0.083,-0.086l0.082,-0.088l0.078,-0.088l0.076,-0.089l0.074,-0.09l0.071,-0.091l0.068,-0.091l0.066,-0.093l0.063,-0.093l0.061,-0.095l0.057,-0.095l0.055,-0.096l0.053,-0.097l0.049,-0.098l0.047,-0.098l0.043,-0.1l0.041,-0.101l0.02,-0.05l0.019,-0.051l0.018,-0.051l0.017,-0.051l0.016,-0.052l0.016,-0.051l0.015,-0.052l0.014,-0.052l0.014,-0.052l0.013,-0.053l0.012,-0.053l0.011,-0.053l0.011,-0.053l0.009,-0.053l0.009,-0.054l0.009,-0.054l0.007,-0.054l0.007,-0.054l0.006,-0.055l0.005,-0.054l0.004,-0.055l0.004,-0.056l0.002,-0.055l0.002,-0.056l0.002,-0.055l0,-0.056l-0.001,-0.225l-0.005,-0.223l-0.007,-0.223l-0.01,-0.222l-0.012,-0.222l-0.016,-0.221l-0.018,-0.22l-0.021,-0.219l-0.024,-0.218l-0.027,-0.218l-0.029,-0.217l-0.032,-0.216l-0.034,-0.215l-0.037,-0.214l-0.04,-0.213l-0.043,-0.212l-0.045,-0.212l-0.047,-0.21l-0.051,-0.21l-0.052,-0.208l-0.056,-0.208l-0.057,-0.206l-0.061,-0.206l-0.062,-0.204l-0.065,-0.203l-0.068,-0.202l-0.07,-0.202l-0.073,-0.2l-0.074,-0.198l-0.078,-0.198l-0.079,-0.197l-0.082,-0.195l-0.084,-0.194l-0.087,-0.193l-0.089,-0.192l-0.091,-0.19l-0.093,-0.189l-0.096,-0.188l-0.097,-0.187l-0.1,-0.185l-0.103,-0.184l-0.104,-0.182l-0.106,-0.181l-0.109,-0.18l-0.111,-0.178l-0.113,-0.177l-0.114,-0.176l-0.117,-0.174l-0.119,-0.172l-0.121,-0.171l-0.123,-0.17l-0.125,-0.168l-0.127,-0.166l-0.129,-0.165l-0.131,-0.163l-0.133,-0.162l-0.135,-0.16l-0.137,-0.158l-0.138,-0.157l-0.14,-0.155l-0.143,-0.153l-0.144,-0.152l-0.145,-0.15l-0.148,-0.148l-0.149,-0.147l-0.151,-0.144l-0.153,-0.143l-0.155,-0.141l-0.156,-0.14l-0.158,-0.137l-0.16,-0.136l-0.161,-0.133l-0.163,-0.132l-0.164,-0.13l-0.167,-0.128l-0.167,-0.126l-0.169,-0.124l-0.171,-0.122l-0.173,-0.12l-0.173,-0.118l-0.176,-0.116l-0.176,-0.114l-0.179,-0.112l-0.179,-0.11l-0.182,-0.108l-0.182,-0.106l-0.184,-0.103l-0.185,-0.101l-0.187,-0.1l-0.188,-0.097l-0.189,-0.095l-0.191,-0.092l-0.192,-0.091l-0.193,-0.088l-0.194,-0.086l-0.196,-0.083l-0.197,-0.081l-0.198,-0.079l-0.199,-0.077l-0.2,-0.074l-0.202,-0.072l-0.203,-0.07l-0.203,-0.067l-0.205,-0.064l-0.206,-0.063l-0.207,-0.059l-0.208,-0.058l-0.21,-0.055l-0.21,-0.052l-0.211,-0.05l-0.212,-0.047l-0.213,-0.045l-0.214,-0.042l-0.215,-0.039l-0.216,-0.037l-0.216,-0.034l-0.218,-0.032l-0.218,-0.029l-0.22,-0.026l-0.22,-0.024l-0.221,-0.021l-0.221,-0.018l-0.223,-0.015l-0.223,-0.013l-0.224,-0.01l-0.225,-0.007l-0.225,-0.004l-0.226,-0.002l-0.226,0.002Z" style="fill:#7446ff;"/></svg>